<?xml version="1.0" ?><!DOCTYPE svg  PUBLIC '-//W3C//DTD SVG 1.1//EN'  'http://www.w3.org/Graphics/SVG/1.1/DTD/svg11.dtd'><svg enable-background="new 0 0 128 128" id="Слой_1" version="1.1" viewBox="0 0 128 128" xml:space="preserve" xmlns="http://www.w3.org/2000/svg" xmlns:xlink="http://www.w3.org/1999/xlink"><g><g><path d="M75.9,84.9c-1.9-1.9-5.1-2.1-7.6-0.6l-2.2,1.4l-6.5,4.1c-2.5,1.6-5.7,1-7.2-1.3L43,74l-9.3-14.4    c-1.5-2.3-0.6-5.4,1.9-7l6.5-4.1l2.2-1.4c2.5-1.6,3.6-4.5,2.7-7.1l-9.8-26.6C36,10.3,32.2,9,29,10.6L28.2,11l-9,4.4    c-5.8,2.8-9.4,8.6-9,14.6c0.7,11.9,4.6,33.5,17.7,53.7c13.1,20.3,31.3,33,41.9,38.7c5.3,2.8,12.2,2,17.2-2l7.8-6.3l0.7-0.6    c2.8-2.3,3.2-6.2,0.8-8.6L75.9,84.9z" fill="#90D3EA"/></g><path d="M96.2,104.9l-20.3-20c-0.3-0.3-0.6-0.5-0.9-0.7l14.8,14.5c2.4,2.3,2,6.3-0.8,8.6l-0.7,0.6   l-7.8,6.3c-5,4-11.9,4.9-17.2,2c-5.7-3.1-13.7-8.2-21.9-15.5c10.3,10.6,21.1,17.8,28.3,21.6c5.3,2.8,12.2,2,17.2-2l7.8-6.3l0.7-0.6   C98.2,111.2,98.6,107.3,96.2,104.9z" fill="#502D4B" opacity="0.2"/><path d="M37.8,41l-2.2,1.4l-6.5,4.1c-2.5,1.6-3.3,4.7-1.9,7l9.3,14.4L46,82.5c0.9,1.3,2.3,2,3.8,2.1   L43,74l-9.3-14.4c-1.5-2.3-0.6-5.4,1.9-7l6.5-4.1l2.2-1.4c2.5-1.6,3.6-4.5,2.7-7.1l-9.8-26.6c-0.8-2.3-3.1-3.6-5.5-3.5l8.8,24   C41.5,36.5,40.3,39.4,37.8,41z" fill="#502D4B" opacity="0.2"/><g><path d="M76.6,125.2C76.6,125.2,76.6,125.2,76.6,125.2c-2.6,0-5.2-0.6-7.4-1.8c-6.1-3.3-27.4-15.8-42.4-39.1    C12.3,61.9,9.4,38.9,8.9,30c-0.4-6.4,3.5-12.8,9.7-15.8l9.8-4.7c1.1-0.5,2.3-0.8,3.4-0.8c3,0,5.5,1.7,6.5,4.3l9.8,26.6    c1.1,3.1-0.2,6.7-3.2,8.6l-8.7,5.5c-1,0.6-1.7,1.6-1.9,2.7c-0.2,0.9,0,1.8,0.4,2.6l18.7,29c0.6,1,1.8,1.6,3.1,1.6    c0.8,0,1.7-0.2,2.4-0.7l8.7-5.5c1.3-0.8,2.7-1.2,4.2-1.2c1.9,0,3.7,0.7,4.9,2l20.3,20c1.3,1.3,2,3.1,1.9,5c-0.1,2.1-1.1,4-2.8,5.4    l-8.4,6.8C84.6,123.8,80.6,125.2,76.6,125.2z M31.8,11.2c-0.8,0-1.6,0.2-2.3,0.5l-9.8,4.7c-5.3,2.6-8.7,8-8.3,13.4    C11.9,38.5,14.7,61,28.9,83c14.7,22.8,35.5,35,41.5,38.2c1.9,1,4,1.5,6.3,1.5c3.4,0,6.8-1.2,9.5-3.4l8.4-6.8    c1.1-0.9,1.8-2.2,1.9-3.6c0.1-1.2-0.4-2.3-1.2-3.1L75,85.8c-1.5-1.5-4.1-1.6-6.1-0.4l-8.7,5.5c-1.1,0.7-2.4,1.1-3.7,1.1    c-2.1,0-4.1-1-5.2-2.7l-18.7-29c-0.8-1.3-1.1-2.9-0.8-4.5c0.4-1.7,1.5-3.3,3-4.2l8.7-5.5c2-1.3,2.9-3.6,2.2-5.6L36,13.9    C35.4,12.2,33.7,11.2,31.8,11.2z" fill="#502D4B"/></g><path d="M47,40.1l-9.8-26.6C36,10.3,32.2,9,29,10.6L28.2,11l13.9,37.6l2.2-1.4   C46.8,45.6,47.9,42.6,47,40.1z" fill="#502D4B" opacity="0.2"/><g><path d="M42.1,49.8c-0.5,0-1-0.3-1.2-0.8L27,11.4c-0.2-0.6,0.1-1.4,0.7-1.6c0.6-0.2,1.4,0.1,1.6,0.7l13.9,37.6    c0.2,0.6-0.1,1.4-0.7,1.6C42.4,49.8,42.2,49.8,42.1,49.8z" fill="#502D4B"/></g><path d="M75.9,84.9l20.3,20c2.4,2.3,2,6.3-0.8,8.6l-0.7,0.6L66.1,85.8l2.2-1.4   C70.8,82.8,74,83,75.9,84.9z" fill="#502D4B" opacity="0.2"/><g><path d="M94.7,115.3c-0.3,0-0.6-0.1-0.9-0.4L65.2,86.7c-0.5-0.5-0.5-1.3,0-1.8c0.5-0.5,1.3-0.5,1.8,0l28.6,28.3    c0.5,0.5,0.5,1.3,0,1.8C95.4,115.2,95,115.3,94.7,115.3z" fill="#502D4B"/></g><g><path d="M117.9,35.4c-0.3,17-14.6,30.5-31.7,30.5H58.7c-1.5,0-2.8-1.2-2.8-2.8V35.7C56,18.6,69.4,4.3,86.4,4    C103.9,3.7,118.2,18,117.9,35.4z" fill="#E074A3"/></g><g><g><path d="M83,44.1H71.4c0.9-1.8,2.6-3.3,5.3-5l2.2-1.3c2.7-1.7,6.1-3.8,6.1-8.7c0-4.8-3.7-8-9.4-8     c-3.2,0-5.7,0.9-7.6,2.7c-1.2,1.2-2.1,2.8-2.5,4.6c0,0.2-0.1,0.4-0.1,0.7c0,1.2,0.9,2.2,2.2,2.6c0.3,0.1,0.5,0.1,0.7,0.1     c1.3,0,2.3-0.7,2.6-1.9c0.5-2.1,1.5-3.5,4.4-3.5c0.9,0,3.8,0.2,3.8,2.7c0,1.7-0.8,2.7-4,4.8L73,35.2c-3.2,2.1-5.3,4.2-6.6,6.7     c-0.3,0.6-1.4,2.7-1.4,4.3c0,1.9,1.3,3.2,3.2,3.2H83c1.4,0,2.5-1.1,2.5-2.7C85.5,45.2,84.4,44.1,83,44.1z" fill="#FFFFFF"/></g><g><path d="M107.5,37.9h-1.8V24.2c0-1.9-1.2-3.1-3.1-3.1c-2,0-2.9,1-3.7,2.1L89,36.8c-0.8,1.1-1.3,1.9-1.3,3.4     c0,1.8,1.2,3,3,3h9.5v4c0,1.6,1.1,2.6,2.7,2.6c1.7,0,2.7-1,2.7-2.6v-4h1.8c1.5,0,2.5-1.1,2.5-2.6C110,38.9,109,37.9,107.5,37.9z      M100.2,30.8v7.1h-5.6l5.6-7.9C100.2,30.3,100.2,30.5,100.2,30.8z" fill="#FFFFFF"/></g></g><g><path d="M86.2,67.2H58.7c-2.2,0-4-1.8-4-4V35.7C54.7,17.8,68.9,3,86.4,2.8l0.5,0c8.7,0,16.8,3.4,23,9.6    c6.1,6.2,9.4,14.4,9.3,23.1C118.9,52.9,104.1,67.2,86.2,67.2z M86.9,5.2l-0.5,0C70.3,5.5,57.2,19.1,57.2,35.7v27.5    c0,0.8,0.7,1.5,1.5,1.5h27.5c16.5,0,30.2-13.1,30.4-29.2c0.1-8-2.9-15.6-8.5-21.3C102.5,8.4,95,5.2,86.9,5.2z" fill="#502D4B"/></g></g></svg>